<svg id="Capa_2" data-name="Capa 2" xmlns="http://www.w3.org/2000/svg" width="245.36" height="30" viewBox="0 0 245.36 30">
  <g id="Capa_1" data-name="Capa 1" transform="translate(0)">
    <path id="Trazado_149" data-name="Trazado 149" d="M26.449,16.959a8.164,8.164,0,0,0-1.042.3l-.309.116a10.441,10.441,0,0,1-4.217.759,4.526,4.526,0,0,1-1.286-.347l-.771-.347c-.334-.141-.681-.283-1.042-.411h-.077q-1.594-.617-3.78-1.389a3.086,3.086,0,0,0-.617-.141,5.889,5.889,0,0,0-2.2.27A21.486,21.486,0,0,0,5.375,18.72,66.3,66.3,0,0,0,0,22.822a45.569,45.569,0,0,0,16.446.27A73.5,73.5,0,0,0,27.735,20.3a2.276,2.276,0,0,0,1.17-1.183.219.219,0,0,1,0-.064,2.893,2.893,0,0,0,0-.952v-.219c-.244-.874-1.067-1.17-2.494-.861" transform="translate(0 4.424)" fill="#bd0f14"/>
    <path id="Trazado_150" data-name="Trazado 150" d="M35,16.043l-1.723.874c-1.453.733-2.739,1.35-3.857,1.864-2.816,1.286-4.6,1.839-5.362,1.543a73.5,73.5,0,0,1-11.289,2.79q9.476,4.629,15.43.63a87.435,87.435,0,0,0,10.287-7.869c-.81-.681-1.993-.63-3.549.167" transform="translate(3.65 4.402)" fill="#bd0f14"/>
    <path id="Trazado_151" data-name="Trazado 151" d="M31.043,17.638h0L20.075,7.75l-4.668,4.668L9.84,18.345l10.248-8.126,9.219,7.419Z" transform="translate(2.812 2.215)" fill="#bd0f14"/>
    <path id="Trazado_152" data-name="Trazado 152" d="M9.19,20.895c0,1.132,1.067-.733,1.183-.669l4.1-4.4V0L9.19,3.575" transform="translate(2.627)" fill="#bd0f14"/>
    <path id="Trazado_153" data-name="Trazado 153" d="M18.65,3.15,16.632,1.8V12.344l2.019-2.057ZM15.873,1.363,13.79,0V15.147l2.083-2.109Z" transform="translate(3.941)" fill="#bd0f14"/>
    <path id="Trazado_154" data-name="Trazado 154" d="M36.566,8.33a4.642,4.642,0,0,0-.386,1.89v6.429a4.6,4.6,0,0,0,.386,1.89,4.526,4.526,0,0,0,1.054,1.517,5.529,5.529,0,0,0,1.5,1.016,4.655,4.655,0,0,0,1.787.347h7.895a1.543,1.543,0,0,0,0-3.086H40.912a1.62,1.62,0,0,1-1.183-.489,1.7,1.7,0,0,1-.463-1.2V15h9.451a1.582,1.582,0,0,0,1.543-1.556,1.4,1.4,0,0,0-.463-1.08,1.479,1.479,0,0,0-1.08-.463H39.266V10.22a1.7,1.7,0,0,1,.463-1.2,1.62,1.62,0,0,1,1.183-.489h7.895a1.492,1.492,0,0,0,1.08-.45,1.414,1.414,0,0,0,.463-1.093,1.44,1.44,0,0,0-.463-1.08,1.466,1.466,0,0,0-1.08-.463H40.912a4.256,4.256,0,0,0-1.787.386,4.9,4.9,0,0,0-1.5.977A5.143,5.143,0,0,0,36.566,8.33" transform="translate(10.341 1.558)" fill="#bd0f14"/>
    <path id="Trazado_155" data-name="Trazado 155" d="M124.416,8.1a1.44,1.44,0,0,0,1.08.463h4.925V19.907a1.363,1.363,0,0,0,.463,1.054,1.53,1.53,0,0,0,1.093.45,1.491,1.491,0,0,0,1.08-.45,1.363,1.363,0,0,0,.463-1.054V8.566h4.873a1.53,1.53,0,0,0,1.132-.463,1.479,1.479,0,0,0,.45-1.08,1.53,1.53,0,0,0-.45-1.093,1.569,1.569,0,0,0-1.132-.45H125.534a1.479,1.479,0,0,0-1.08.45,1.556,1.556,0,0,0-.424,1.093,1.5,1.5,0,0,0,.424,1.08" transform="translate(35.45 1.566)" fill="#bd0f14"/>
    <path id="Trazado_156" data-name="Trazado 156" d="M111.343,5.45a1.492,1.492,0,0,0-1.093.463,1.427,1.427,0,0,0-.45,1.08V19.851a1.479,1.479,0,0,0,.45,1.093,1.53,1.53,0,0,0,1.093.45,1.492,1.492,0,0,0,1.08-.45,1.556,1.556,0,0,0,.424-1.093V16.444h5.143l4.6,4.59a1.543,1.543,0,0,0,.527.36l.553.1.6-.1a1.7,1.7,0,0,0,.489-.36,1.427,1.427,0,0,0,.45-1.08,1.556,1.556,0,0,0-.45-1.093l-2.88-2.88a5.234,5.234,0,0,0,1.286-.81,4.925,4.925,0,0,0,1.093-1.157,6.107,6.107,0,0,0,.656-1.44,5.142,5.142,0,0,0,.244-1.607,5.272,5.272,0,0,0-.411-2.109,5.851,5.851,0,0,0-1.2-1.749,5.143,5.143,0,0,0-1.723-1.157,4.86,4.86,0,0,0-2.109-.463h-8.384m10.647,4.526a1.98,1.98,0,0,1,.206.913,2.3,2.3,0,0,1-.733,1.685,3.123,3.123,0,0,1-.746.527,2.353,2.353,0,0,1-.913.18h-6.982V8.536H119.8a2.353,2.353,0,0,1,.913.18,2.79,2.79,0,0,1,.746.527,2.057,2.057,0,0,1,.527.771" transform="translate(31.383 1.558)" fill="#bd0f14"/>
    <path id="Trazado_157" data-name="Trazado 157" d="M97.276,8.33a4.642,4.642,0,0,0-.386,1.89v6.429a4.6,4.6,0,0,0,.386,1.89,4.526,4.526,0,0,0,1.041,1.517,5.954,5.954,0,0,0,1.5,1.016,4.719,4.719,0,0,0,1.8.347h7.895a1.543,1.543,0,0,0,0-3.086h-7.895a1.633,1.633,0,0,1-1.2-.489,1.7,1.7,0,0,1-.463-1.2V15h9.451a1.466,1.466,0,0,0,1.08-.463,1.492,1.492,0,0,0,.463-1.093,1.4,1.4,0,0,0-.463-1.08,1.466,1.466,0,0,0-1.08-.463H99.976V10.22a1.7,1.7,0,0,1,.463-1.2,1.633,1.633,0,0,1,1.2-.489h7.895a1.53,1.53,0,0,0,1.093-.45,1.44,1.44,0,0,0,.45-1.093A1.556,1.556,0,0,0,109.53,5.45h-7.895a4.32,4.32,0,0,0-1.8.386,5.221,5.221,0,0,0-1.517.977A5.143,5.143,0,0,0,97.263,8.33" transform="translate(27.693 1.558)" fill="#bd0f14"/>
    <path id="Trazado_158" data-name="Trazado 158" d="M83.8,5.9a1.556,1.556,0,0,0-.424,1.119V19.881a1.427,1.427,0,0,0,.424,1.054,1.479,1.479,0,0,0,1.08.45h8.666a4.565,4.565,0,0,0,2.2-.54,4.475,4.475,0,0,0,.952-.656,3.343,3.343,0,0,0,.733-.887,4.706,4.706,0,0,0,.6-1.286,4.282,4.282,0,0,0,.283-1.337,4.359,4.359,0,0,0-.36-1.762,5.015,5.015,0,0,0-.9-1.479,5.683,5.683,0,0,0,.9-1.466,4.14,4.14,0,0,0,.36-1.723A4.744,4.744,0,0,0,97.756,8a5.489,5.489,0,0,0-.669-.977,4.332,4.332,0,0,0-.874-.733,5.4,5.4,0,0,0-1.286-.6,4.642,4.642,0,0,0-1.414-.206H84.885A1.5,1.5,0,0,0,83.8,5.9M95.03,11.048a1.942,1.942,0,0,1-.527.591,1.517,1.517,0,0,1-.836.283h-3.69a1.414,1.414,0,0,0-1.093.463,1.491,1.491,0,0,0-.45,1.08,1.53,1.53,0,0,0,.45,1.093,1.414,1.414,0,0,0,1.093.463h3.51l.733.1a2.083,2.083,0,0,1,.746.669,1.633,1.633,0,0,1,.283.913,1.466,1.466,0,0,1-.141.63,1.556,1.556,0,0,1-.6.771,1.723,1.723,0,0,1-.952.283H86.428V8.527h7.123a1.53,1.53,0,0,1,.81.219,2.057,2.057,0,0,1,.6.553,1.556,1.556,0,0,1,.283.952,1.453,1.453,0,0,1-.219.771" transform="translate(23.831 1.566)" fill="#bd0f14"/>
    <path id="Trazado_159" data-name="Trazado 159" d="M82.079,7.023a1.491,1.491,0,0,0-.5-1.093,1.44,1.44,0,0,0-1.093-.45,1.492,1.492,0,0,0-1.08.45,1.556,1.556,0,0,0-.424,1.093V19.881a1.556,1.556,0,0,0,.424,1.093,1.492,1.492,0,0,0,1.08.45,1.44,1.44,0,0,0,1.093-.45,1.491,1.491,0,0,0,.463-1.093V7.023" transform="translate(22.574 1.566)" fill="#bd0f14"/>
    <path id="Trazado_160" data-name="Trazado 160" d="M52.23,6.993a1.44,1.44,0,0,0-.463-1.08,1.466,1.466,0,0,0-1.08-.463A1.514,1.514,0,0,0,49.17,6.993v9.656a4.809,4.809,0,0,0,.36,1.864,4.578,4.578,0,0,0,1.71,2.1,7.227,7.227,0,0,0,1.286.6,4.346,4.346,0,0,0,1.4.206h7.548a1.543,1.543,0,1,0,0-3.086H53.915a1.954,1.954,0,0,1-.81-.18,1.53,1.53,0,0,1-.591-.553,1.774,1.774,0,0,1-.283-.951V6.993" transform="translate(14.054 1.558)" fill="#bd0f14"/>
    <path id="Trazado_161" data-name="Trazado 161" d="M67.424,5.913A1.5,1.5,0,0,0,67,6.993v9.656a5.053,5.053,0,0,0,.347,1.864,4.6,4.6,0,0,0,1.723,2.1,7.561,7.561,0,0,0,1.286.6,4.4,4.4,0,0,0,1.4.206h7.548a1.53,1.53,0,0,0,1.093-.45,1.556,1.556,0,0,0,0-2.186,1.53,1.53,0,0,0-1.093-.45H71.732a1.942,1.942,0,0,1-.8-.18,1.569,1.569,0,0,1-.6-.553,1.89,1.89,0,0,1-.283-.952V6.993a1.427,1.427,0,0,0-.476-1.08,1.492,1.492,0,0,0-1.093-.463,1.466,1.466,0,0,0-1.08.463" transform="translate(19.15 1.558)" fill="#bd0f14"/>
    <path id="Trazado_162" data-name="Trazado 162" d="M164.783,9.016a8.884,8.884,0,0,0-1.016,2.109,8.086,8.086,0,0,0-.347,2.392,7.25,7.25,0,0,0,.167,1.607,6.839,6.839,0,0,0,.463,1.479,7.972,7.972,0,0,0,2.919,3.549,7.612,7.612,0,0,0,2.134.977,7.894,7.894,0,0,0,2.353.36,9.155,9.155,0,0,0,1.582-.141,5.915,5.915,0,0,0,1.5-.5,6.969,6.969,0,0,0,2.006-1.157,8.563,8.563,0,0,0,1.543-1.71,8.5,8.5,0,0,0,.977-2.109,7.162,7.162,0,0,0,.386-2.353,7.547,7.547,0,0,0-.669-3.163,7.315,7.315,0,0,0-1.157-1.967,8.563,8.563,0,0,0-1.71-1.543,8.654,8.654,0,0,0-2.109-1.016,7.715,7.715,0,0,0-2.353-.347,7.368,7.368,0,0,0-1.62.167,7.714,7.714,0,0,0-1.543.463,8.666,8.666,0,0,0-1.967,1.2,9,9,0,0,0-1.543,1.71m3.857.4a3.96,3.96,0,0,1,1.286-.643,5.143,5.143,0,0,1,1.479-.206,4.783,4.783,0,0,1,1.89.386,5.811,5.811,0,0,1,1.286.707,5.143,5.143,0,0,1,.952,1.08,4.45,4.45,0,0,1,.592,1.286,4.41,4.41,0,0,1,.244,1.479,4.783,4.783,0,0,1-.386,1.89,4.977,4.977,0,0,1-.733,1.286,9.152,9.152,0,0,1-1.054.952,5.144,5.144,0,0,1-1.286.591,4.757,4.757,0,0,1-1.44.206,5.143,5.143,0,0,1-1.929-.347,4.976,4.976,0,0,1-1.286-.733,5.939,5.939,0,0,1-.939-1.054,4.54,4.54,0,0,1-.643-1.286,5.142,5.142,0,0,1-.206-1.44,4.693,4.693,0,0,1,.386-1.929,4.642,4.642,0,0,1,1.787-2.173" transform="translate(46.708 1.566)" fill="#bd0f14"/>
    <path id="Trazado_163" data-name="Trazado 163" d="M150.053,5.45a1.466,1.466,0,0,0-1.08.463,1.517,1.517,0,0,0-.463,1.08V19.851a1.556,1.556,0,0,0,1.543,1.543h6.879a6.429,6.429,0,0,0,1.582-.18A7.561,7.561,0,0,0,162,19.594a7.3,7.3,0,0,0,1.543-1.723,7.715,7.715,0,0,0,1.286-4.423,9.354,9.354,0,0,0-.129-1.607,7.813,7.813,0,0,0-.463-1.5,7.92,7.92,0,0,0-2.88-3.523,8.756,8.756,0,0,0-2.109-.977,7.162,7.162,0,0,0-2.353-.386h-6.879m6.879,3.086a4.706,4.706,0,0,1,1.9.386,4.616,4.616,0,0,1,2.134,1.8,3.857,3.857,0,0,1,.643,1.286,4.99,4.99,0,0,1,.206,1.466,4.706,4.706,0,0,1-.386,1.9,5.749,5.749,0,0,1-.733,1.2,4.566,4.566,0,0,1-1.054.939,4.9,4.9,0,0,1-1.286.63,4.629,4.629,0,0,1-1.44.219h-5.336V8.536h5.336" transform="translate(42.447 1.558)" fill="#bd0f14"/>
    <path id="Trazado_164" data-name="Trazado 164" d="M143.922,5.773l-.553-.1h-.887l-.566.1a1.4,1.4,0,0,0-.771.849l-5.233,12.987a1.658,1.658,0,0,0,0,1.119l.347.489a1.2,1.2,0,0,0,.463.321,3.857,3.857,0,0,0,.591.141l.566-.141a1.543,1.543,0,0,0,.81-.849l1.582-3.96h5.22l1.62,3.96a1.543,1.543,0,0,0,.81.849l.553.141a4.051,4.051,0,0,0,.6-.141,1.157,1.157,0,0,0,.45-.321l.36-.489a1.659,1.659,0,0,0,0-1.119l-5.22-12.987a1.389,1.389,0,0,0-.784-.849m.527,8.358h-3.086l1.582-4.115Z" transform="translate(38.818 1.621)" fill="#bd0f14"/>
    <path id="Trazado_165" data-name="Trazado 165" d="M180.413,5.45a1.556,1.556,0,0,0-1.543,1.543V19.851a1.493,1.493,0,1,0,2.983,0V16.444H187l4.6,4.59a1.543,1.543,0,0,0,.527.36l.566.1.591-.1a1.543,1.543,0,0,0,.489-.36,1.44,1.44,0,0,0,.463-1.08,1.569,1.569,0,0,0-.463-1.093l-2.88-2.88a5.015,5.015,0,0,0,1.286-.81,4.925,4.925,0,0,0,1.093-1.157,6.134,6.134,0,0,0,.669-1.44,5.526,5.526,0,0,0,.244-1.607,5.284,5.284,0,0,0-.424-2.109,5.849,5.849,0,0,0-1.2-1.749,5.143,5.143,0,0,0-1.723-1.157,4.847,4.847,0,0,0-2.1-.463h-8.5m10.839,4.526a1.98,1.98,0,0,1,.206.913,2.263,2.263,0,0,1-.206.952,2.1,2.1,0,0,1-.476.707,3.048,3.048,0,0,1-.733.527,2.4,2.4,0,0,1-.913.18h-6.995V8.536h6.995a2.4,2.4,0,0,1,.913.18,2.726,2.726,0,0,1,.733.527,1.929,1.929,0,0,1,.527.771" transform="translate(51.124 1.558)" fill="#bd0f14"/>
  </g>
</svg>
